<svg xmlns="http://www.w3.org/2000/svg" style="display:none">

  <!-- Category Icons -->
  <symbol id="icon-cat-business" viewBox="0 0 32 32">
    <path d="M4 8h24v18a2 2 0 01-2 2H6a2 2 0 01-2-2V8z" fill="none" stroke="currentColor" stroke-width="1.5" stroke-linecap="round" stroke-linejoin="round"/>
    <path d="M12 4h8a2 2 0 012 2v2H10V6a2 2 0 012-2z" fill="none" stroke="currentColor" stroke-width="1.5" stroke-linecap="round" stroke-linejoin="round"/>
    <path d="M4 14h24" stroke="currentColor" stroke-width="1.5" stroke-linecap="round"/>
    <circle cx="16" cy="14" r="2" fill="currentColor"/>
  </symbol>

  <symbol id="icon-cat-client" viewBox="0 0 32 32">
    <circle cx="11" cy="10" r="4" fill="none" stroke="currentColor" stroke-width="1.5"/>
    <circle cx="21" cy="10" r="4" fill="none" stroke="currentColor" stroke-width="1.5"/>
    <path d="M3 26c0-4.4 3.6-8 8-8 1.4 0 2.7.4 3.8 1M29 26c0-4.4-3.6-8-8-8-1.4 0-2.7.4-3.8 1" fill="none" stroke="currentColor" stroke-width="1.5" stroke-linecap="round"/>
    <path d="M13 23l3 3 3-3" fill="none" stroke="currentColor" stroke-width="1.5" stroke-linecap="round" stroke-linejoin="round"/>
  </symbol>

  <symbol id="icon-cat-fun" viewBox="0 0 32 32">
    <rect x="4" y="6" width="24" height="20" rx="3" fill="none" stroke="currentColor" stroke-width="1.5"/>
    <path d="M13 12v8l7-4z" fill="currentColor" opacity="0.8"/>
    <circle cx="8" cy="4" r="1.5" fill="currentColor" opacity="0.5"/>
    <circle cx="24" cy="4" r="1.5" fill="currentColor" opacity="0.5"/>
  </symbol>

  <symbol id="icon-cat-education" viewBox="0 0 32 32">
    <path d="M16 4L2 12l14 8 14-8z" fill="none" stroke="currentColor" stroke-width="1.5" stroke-linejoin="round"/>
    <path d="M8 15v8c0 2 3.6 4 8 4s8-2 8-4v-8" fill="none" stroke="currentColor" stroke-width="1.5" stroke-linecap="round" stroke-linejoin="round"/>
    <path d="M28 12v10" stroke="currentColor" stroke-width="1.5" stroke-linecap="round"/>
  </symbol>

  <!-- App Icons -->
  <symbol id="icon-command-center" viewBox="0 0 32 32">
    <rect x="3" y="5" width="26" height="18" rx="2" fill="none" stroke="currentColor" stroke-width="1.5"/>
    <path d="M3 10h26" stroke="currentColor" stroke-width="1.5"/>
    <circle cx="6" cy="7.5" r="1" fill="currentColor"/>
    <circle cx="9" cy="7.5" r="1" fill="currentColor"/>
    <circle cx="12" cy="7.5" r="1" fill="currentColor"/>
    <path d="M7 15h8M7 18h5" stroke="currentColor" stroke-width="1.5" stroke-linecap="round"/>
    <path d="M20 14v6l4-2z" fill="none" stroke="currentColor" stroke-width="1.5" stroke-linejoin="round"/>
    <path d="M12 27l4-4 4 4" stroke="currentColor" stroke-width="1.5" stroke-linecap="round" stroke-linejoin="round"/>
  </symbol>

  <symbol id="icon-leads" viewBox="0 0 32 32">
    <circle cx="16" cy="16" r="12" fill="none" stroke="currentColor" stroke-width="1.5"/>
    <circle cx="16" cy="16" r="8" fill="none" stroke="currentColor" stroke-width="1.5" opacity="0.6"/>
    <circle cx="16" cy="16" r="4" fill="none" stroke="currentColor" stroke-width="1.5" opacity="0.4"/>
    <circle cx="16" cy="16" r="1.5" fill="currentColor"/>
    <path d="M16 2v4M16 26v4M2 16h4M26 16h4" stroke="currentColor" stroke-width="1" stroke-linecap="round" opacity="0.3"/>
  </symbol>

  <symbol id="icon-accounts" viewBox="0 0 32 32">
    <circle cx="16" cy="11" r="5" fill="none" stroke="currentColor" stroke-width="1.5"/>
    <path d="M6 28c0-5.5 4.5-10 10-10s10 4.5 10 10" fill="none" stroke="currentColor" stroke-width="1.5" stroke-linecap="round"/>
    <path d="M22 8a5 5 0 010 6" fill="none" stroke="currentColor" stroke-width="1.5" stroke-linecap="round" opacity="0.5"/>
    <path d="M25 6a8 8 0 010 10" fill="none" stroke="currentColor" stroke-width="1.5" stroke-linecap="round" opacity="0.3"/>
  </symbol>

  <symbol id="icon-sales" viewBox="0 0 32 32">
    <path d="M4 28V12l6-4v20M10 28V8l6-4v24M16 28V4l6 4v20M22 28V8l6 4v16" fill="none" stroke="currentColor" stroke-width="1.5" stroke-linejoin="round"/>
    <path d="M6 16l5-3 5 5 5-7 5 3" stroke="currentColor" stroke-width="1.5" stroke-linecap="round" stroke-linejoin="round" opacity="0.6"/>
  </symbol>

  <symbol id="icon-meetings" viewBox="0 0 32 32">
    <rect x="4" y="4" width="24" height="24" rx="3" fill="none" stroke="currentColor" stroke-width="1.5"/>
    <path d="M4 11h24" stroke="currentColor" stroke-width="1.5"/>
    <path d="M10 2v4M22 2v4" stroke="currentColor" stroke-width="1.5" stroke-linecap="round"/>
    <path d="M10 16h6M10 20h10M10 24h4" stroke="currentColor" stroke-width="1.5" stroke-linecap="round" opacity="0.6"/>
  </symbol>

  <symbol id="icon-sprint" viewBox="0 0 32 32">
    <rect x="4" y="4" width="24" height="24" rx="2" fill="none" stroke="currentColor" stroke-width="1.5"/>
    <path d="M4 10h24" stroke="currentColor" stroke-width="1.5"/>
    <path d="M11 4v6M19 4v6" stroke="currentColor" stroke-width="1.5"/>
    <rect x="7" y="13" width="4" height="3" rx="0.5" fill="currentColor" opacity="0.7"/>
    <rect x="14" y="13" width="4" height="3" rx="0.5" fill="currentColor" opacity="0.5"/>
    <rect x="21" y="13" width="4" height="3" rx="0.5" fill="currentColor" opacity="0.3"/>
    <rect x="7" y="19" width="4" height="3" rx="0.5" fill="currentColor" opacity="0.5"/>
    <rect x="14" y="19" width="4" height="3" rx="0.5" fill="currentColor" opacity="0.3"/>
  </symbol>

  <symbol id="icon-standup" viewBox="0 0 32 32">
    <path d="M6 4h20a2 2 0 012 2v16a2 2 0 01-2 2H6a2 2 0 01-2-2V6a2 2 0 012-2z" fill="none" stroke="currentColor" stroke-width="1.5"/>
    <path d="M9 10h14M9 14h10M9 18h7" stroke="currentColor" stroke-width="1.5" stroke-linecap="round"/>
    <circle cx="24" cy="26" r="4" fill="none" stroke="currentColor" stroke-width="1.5"/>
    <path d="M24 24v2h2" stroke="currentColor" stroke-width="1.5" stroke-linecap="round"/>
  </symbol>

  <symbol id="icon-travel" viewBox="0 0 32 32">
    <path d="M16 4c-4.4 0-8 3.1-8 8 0 6 8 16 8 16s8-10 8-16c0-4.9-3.6-8-8-8z" fill="none" stroke="currentColor" stroke-width="1.5"/>
    <circle cx="16" cy="12" r="3" fill="none" stroke="currentColor" stroke-width="1.5"/>
    <path d="M10 25h12" stroke="currentColor" stroke-width="1" stroke-linecap="round" opacity="0.3"/>
  </symbol>

  <symbol id="icon-scorecard" viewBox="0 0 32 32">
    <rect x="5" y="3" width="22" height="26" rx="2" fill="none" stroke="currentColor" stroke-width="1.5"/>
    <path d="M10 10h12M10 15h12M10 20h8" stroke="currentColor" stroke-width="1.5" stroke-linecap="round" opacity="0.4"/>
    <circle cx="22" cy="10" r="2" fill="none" stroke="currentColor" stroke-width="1.5"/>
    <path d="M21 10l1 1 2-2" stroke="currentColor" stroke-width="1" stroke-linecap="round" stroke-linejoin="round"/>
    <path d="M10 25h4" stroke="currentColor" stroke-width="2" stroke-linecap="round"/>
  </symbol>

  <symbol id="icon-uptime" viewBox="0 0 32 32">
    <circle cx="16" cy="16" r="12" fill="none" stroke="currentColor" stroke-width="1.5"/>
    <path d="M8 16h4l2-5 4 10 2-5h4" stroke="currentColor" stroke-width="1.5" stroke-linecap="round" stroke-linejoin="round"/>
  </symbol>

  <symbol id="icon-lighthouse" viewBox="0 0 32 32">
    <path d="M13 8h6l2 20H11z" fill="none" stroke="currentColor" stroke-width="1.5" stroke-linejoin="round"/>
    <path d="M14 4h4v4h-4z" fill="none" stroke="currentColor" stroke-width="1.5"/>
    <path d="M12 16h8" stroke="currentColor" stroke-width="1.5" stroke-linecap="round"/>
    <path d="M8 12l-3-1M24 12l3-1M8 20l-3 1M24 20l3 1" stroke="currentColor" stroke-width="1.5" stroke-linecap="round" opacity="0.5"/>
    <circle cx="16" cy="4" r="1.5" fill="currentColor"/>
  </symbol>

  <symbol id="icon-pr-review" viewBox="0 0 32 32">
    <circle cx="10" cy="8" r="3" fill="none" stroke="currentColor" stroke-width="1.5"/>
    <circle cx="10" cy="24" r="3" fill="none" stroke="currentColor" stroke-width="1.5"/>
    <circle cx="22" cy="14" r="3" fill="none" stroke="currentColor" stroke-width="1.5"/>
    <path d="M10 11v10" stroke="currentColor" stroke-width="1.5"/>
    <path d="M13 8c4 0 6 2 6 6" stroke="currentColor" stroke-width="1.5" stroke-linecap="round"/>
  </symbol>

  <symbol id="icon-generations" viewBox="0 0 32 32">
    <circle cx="16" cy="14" r="10" fill="none" stroke="currentColor" stroke-width="1.5"/>
    <path d="M12 11c0-2.2 1.8-4 4-4s4 1.8 4 4" fill="none" stroke="currentColor" stroke-width="1.5" stroke-linecap="round"/>
    <path d="M16 18v3M13 24h6" stroke="currentColor" stroke-width="1.5" stroke-linecap="round"/>
    <path d="M11 15h2M19 15h2" stroke="currentColor" stroke-width="1.5" stroke-linecap="round"/>
    <path d="M14 18a2 2 0 004 0" fill="none" stroke="currentColor" stroke-width="1.5" stroke-linecap="round"/>
  </symbol>

  <symbol id="icon-slang" viewBox="0 0 32 32">
    <path d="M6 6h14a2 2 0 012 2v8a2 2 0 01-2 2h-4l-4 4v-4H6a2 2 0 01-2-2V8a2 2 0 012-2z" fill="none" stroke="currentColor" stroke-width="1.5"/>
    <path d="M22 12h4a2 2 0 012 2v8a2 2 0 01-2 2h-2v4l-4-4h-6a2 2 0 01-2-2v-2" fill="none" stroke="currentColor" stroke-width="1.5"/>
    <path d="M8 10h8M8 13h5" stroke="currentColor" stroke-width="1.5" stroke-linecap="round" opacity="0.5"/>
  </symbol>

  <symbol id="icon-wine" viewBox="0 0 32 32">
    <path d="M10 4h12v8c0 4.4-2.7 8-6 8s-6-3.6-6-8V4z" fill="none" stroke="currentColor" stroke-width="1.5"/>
    <path d="M16 20v6" stroke="currentColor" stroke-width="1.5"/>
    <path d="M11 28h10" stroke="currentColor" stroke-width="1.5" stroke-linecap="round"/>
    <path d="M10 10h12" stroke="currentColor" stroke-width="1.5" opacity="0.4"/>
  </symbol>

  <symbol id="icon-soccer" viewBox="0 0 32 32">
    <circle cx="16" cy="16" r="12" fill="none" stroke="currentColor" stroke-width="1.5"/>
    <path d="M16 4l3 6h-6zM28 16l-6 3v-6zM16 28l-3-6h6zM4 16l6-3v6z" fill="none" stroke="currentColor" stroke-width="1" opacity="0.4"/>
    <circle cx="16" cy="16" r="4" fill="none" stroke="currentColor" stroke-width="1"/>
  </symbol>

  <symbol id="icon-concerts" viewBox="0 0 32 32">
    <path d="M12 6v16" stroke="currentColor" stroke-width="1.5" stroke-linecap="round"/>
    <path d="M20 4v18" stroke="currentColor" stroke-width="1.5" stroke-linecap="round"/>
    <path d="M12 6c0 0 4-2 8-2" stroke="currentColor" stroke-width="1.5" stroke-linecap="round"/>
    <circle cx="8" cy="24" r="4" fill="none" stroke="currentColor" stroke-width="1.5"/>
    <circle cx="16" cy="24" r="4" fill="none" stroke="currentColor" stroke-width="1.5"/>
  </symbol>

  <symbol id="icon-roblox" viewBox="0 0 32 32">
    <circle cx="16" cy="10" r="4" fill="none" stroke="currentColor" stroke-width="1.5"/>
    <path d="M16 14v4" stroke="currentColor" stroke-width="1.5" stroke-linecap="round"/>
    <path d="M12 28l4-10 4 10" fill="none" stroke="currentColor" stroke-width="1.5" stroke-linecap="round" stroke-linejoin="round"/>
    <path d="M10 20l6-2 6 2" fill="none" stroke="currentColor" stroke-width="1.5" stroke-linecap="round" stroke-linejoin="round"/>
    <path d="M8 24l2-2M24 24l-2-2" stroke="currentColor" stroke-width="1.5" stroke-linecap="round" opacity="0.4"/>
  </symbol>

  <symbol id="icon-tutor" viewBox="0 0 32 32">
    <path d="M16 4L2 12l14 8 14-8z" fill="none" stroke="currentColor" stroke-width="1.5" stroke-linejoin="round"/>
    <path d="M8 15v8c0 2 3.6 4 8 4s8-2 8-4v-8" fill="none" stroke="currentColor" stroke-width="1.5" stroke-linecap="round" stroke-linejoin="round"/>
    <path d="M14 19h4M16 17v4" stroke="currentColor" stroke-width="1.5" stroke-linecap="round"/>
  </symbol>

</svg>
