<svg width="344" height="58" viewBox="0 0 344 58" fill="none" xmlns="http://www.w3.org/2000/svg">
<g clip-path="url(#clip0_1_2)">
<path d="M0 28.5146L29.4507 14.4014V20.666L6.04834 31.6836L29.4507 42.6992V48.9648L0 34.8516V28.5146Z" fill="white"/>
<path d="M67.2744 0L38.0395 57.6055H31.8472L61.0815 0H67.2744Z" fill="white"/>
<path d="M116.48 54.0049H111.584L110.72 48.8926C108.416 52.2051 103.303 54.5811 97.9023 54.5811C91.854 54.5811 86.6694 50.9805 86.6694 43.5645C86.6694 35.5 93.1499 31.6836 103.087 31.6836H110.432V30.0986C110.432 24.4824 106.471 22.6103 102.079 22.6103C100.174 22.5817 98.311 23.1691 96.767 24.2849C95.2231 25.4007 94.0808 26.9852 93.5103 28.8027L88.1817 27.3632C89.8379 21.0254 95.4541 17.1377 102.079 17.1377C110.576 17.1377 116.48 21.0977 116.48 31.1074L116.48 54.0049ZM98.8384 49.1084C103.519 49.1084 110.432 46.2285 110.432 38.0195V36.8672H102.511C96.3184 36.8672 92.8618 39.459 92.8618 43.5645C92.8618 47.0205 95.2383 49.1084 98.8384 49.1084Z" fill="white"/>
<path d="M151.544 24.9863L146.792 28.3711C144.559 24.3379 141.967 22.6103 138.079 22.6103C134.982 22.6103 131.814 23.9062 131.814 27.4346C131.814 30.5312 134.838 31.9707 140.239 33.0508C147.007 34.4189 153.272 36.3633 153.272 42.916C153.272 50.4043 146.792 54.581 139.303 54.581C132.03 54.581 125.766 50.9804 123.533 44.0683L129.294 41.9082C129.933 44.0452 131.261 45.9106 133.072 47.2131C134.883 48.5157 137.074 49.1821 139.303 49.1084C143.407 49.1084 147.007 47.3086 147.007 43.4922C147.007 40.3955 143.407 39.3877 137.647 38.1641C131.526 36.8672 125.91 34.7793 125.91 27.6504C125.91 21.1699 131.598 17.1377 138.294 17.1377C144.847 17.1377 148.808 20.0176 151.544 24.9863Z" fill="white"/>
<path d="M157.749 17.7139H167.397V6.84082L173.446 3.02441V17.7139H191.159V23.1856H173.446V41.7637C173.446 46.8047 175.678 49.1084 179.71 49.1084C182.879 49.1084 185.471 48.1006 188.639 44.7881L190.872 49.9004C189.458 51.4385 187.729 52.653 185.803 53.4609C183.876 54.2687 181.798 54.6508 179.71 54.5811C171.79 54.5811 167.397 50.4043 167.397 41.9805V23.1856H157.749V17.7139Z" fill="white"/>
<path d="M223.079 29.2344C222.575 25.0586 220.415 22.6104 216.094 22.6104C209.758 22.6104 203.781 28.5869 203.781 40.9004V54.0049H197.733V17.7139H203.781V24.4102C205.185 22.1345 207.159 20.2658 209.509 18.99C211.859 17.7141 214.501 17.0756 217.174 17.1377C224.375 17.1377 228.695 21.458 229.127 29.2344L223.079 29.2344Z" fill="white"/>
<path d="M267.231 37.1553H238.86C239.22 44.3555 243.613 49.1084 250.021 49.1084C255.494 49.1084 259.238 46.4443 261.686 41.9082L266.511 44.4277C262.55 52.0605 256.79 54.581 250.021 54.581C239.436 54.581 232.668 46.4443 232.668 35.8594C232.668 25.6348 239.148 17.1377 250.021 17.1377C261.254 17.1377 267.231 25.1309 267.231 34.6348L267.231 37.1553ZM239.293 31.6836H260.822C259.742 25.9219 255.926 22.6103 250.022 22.6103C244.189 22.6103 240.517 26.2109 239.292 31.6836H239.293Z" fill="white"/>
<path d="M307.495 17.7139L292.301 54.0049H286.253L271.06 17.7139H277.612L289.277 46.8047L300.942 17.7139H307.495Z" fill="white"/>
<path d="M343.774 34.8516L314.323 48.9648V42.6992L337.725 31.6836L314.323 20.666V14.4014L343.774 28.5146V34.8516Z" fill="white"/>
<path d="M79.616 47.957V3.601H73.279V54.005H79.616V47.957Z" fill="white"/>
</g>
<defs>
<clipPath id="clip0_1_2">
<rect width="343.774" height="57.6055" fill="white"/>
</clipPath>
</defs>
</svg>
